<?xml version="1.0" encoding="UTF-8"?>
<svg width="128" height="128" viewBox="0 0 128 128" xmlns="http://www.w3.org/2000/svg">
  <defs>
    <linearGradient id="gradient" x1="0%" y1="0%" x2="100%" y2="100%">
      <stop offset="0%" style="stop-color:#007ACC;stop-opacity:1" />
      <stop offset="100%" style="stop-color:#005A9E;stop-opacity:1" />
    </linearGradient>
  </defs>
  
  <!-- Background circle -->
  <circle cx="64" cy="64" r="60" fill="url(#gradient)" stroke="#003D6B" stroke-width="2"/>
  
  <!-- Document icon -->
  <rect x="30" y="25" width="50" height="65" rx="4" fill="white" opacity="0.9"/>
  <rect x="30" y="25" width="50" height="10" rx="4" fill="#007ACC"/>
  
  <!-- Text lines -->
  <rect x="35" y="40" width="40" height="2" fill="#666"/>
  <rect x="35" y="45" width="35" height="2" fill="#666"/>
  <rect x="35" y="50" width="30" height="2" fill="#666"/>
  <rect x="35" y="55" width="25" height="2" fill="#666"/>
  
  <!-- Gear icon (CI/CD symbol) -->
  <g transform="translate(85, 85)">
    <circle cx="0" cy="0" r="12" fill="#FF6B35" stroke="white" stroke-width="2"/>
    <circle cx="0" cy="0" r="6" fill="white"/>
    <rect x="-2" y="-15" width="4" height="6" fill="#FF6B35"/>
    <rect x="-2" y="9" width="4" height="6" fill="#FF6B35"/>
    <rect x="-15" y="-2" width="6" height="4" fill="#FF6B35"/>
    <rect x="9" y="-2" width="6" height="4" fill="#FF6B35"/>
  </g>
  
  <!-- Arrow connecting document to gear -->
  <path d="M 75 60 Q 85 70 85 75" stroke="#FF6B35" stroke-width="3" fill="none" marker-end="url(#arrowhead)"/>
  
  <defs>
    <marker id="arrowhead" markerWidth="10" markerHeight="7" refX="9" refY="3.5" orient="auto">
      <polygon points="0 0, 10 3.5, 0 7" fill="#FF6B35"/>
    </marker>
  </defs>
</svg>